<svg xmlns="http://www.w3.org/2000/svg" viewBox="0 0 528 152" width="100%" height="auto">
  <defs>
    <linearGradient id="g" x1="24" y1="0" x2="504" y2="0" gradientUnits="userSpaceOnUse">
      <stop offset="0%"   stop-color="#3b82f6"/>
      <stop offset="18%"  stop-color="#6366f1"/>
      <stop offset="36%"  stop-color="#8b5cf6"/>
      <stop offset="54%"  stop-color="#a855f7"/>
      <stop offset="72%"  stop-color="#d946ef"/>
      <stop offset="100%" stop-color="#ec4899"/>
    </linearGradient>
  </defs>
  <rect x="216" y="18.0" width="40" height="10.5" fill="url(#g)" />
  <rect x="264" y="18.0" width="40" height="10.5" fill="url(#g)" />
  <rect x="208" y="28.5" width="16" height="10.5" fill="url(#g)" opacity="0.25" />
  <rect x="224" y="28.5" width="24" height="10.5" fill="url(#g)" />
  <rect x="256" y="28.5" width="16" height="10.5" fill="url(#g)" opacity="0.25" />
  <rect x="272" y="28.5" width="24" height="10.5" fill="url(#g)" />
  <rect x="32" y="39.0" width="64" height="10.5" fill="url(#g)" />
  <rect x="120" y="39.0" width="48" height="10.5" fill="url(#g)" />
  <rect x="192" y="39.0" width="56" height="10.5" fill="url(#g)" />
  <rect x="264" y="39.0" width="8" height="10.5" fill="url(#g)" opacity="0.25" />
  <rect x="272" y="39.0" width="56" height="10.5" fill="url(#g)" />
  <rect x="352" y="39.0" width="48" height="10.5" fill="url(#g)" />
  <rect x="416" y="39.0" width="40" height="10.5" fill="url(#g)" />
  <rect x="464" y="39.0" width="40" height="10.5" fill="url(#g)" />
  <rect x="24" y="49.5" width="16" height="10.5" fill="url(#g)" opacity="0.25" />
  <rect x="40" y="49.5" width="24" height="10.5" fill="url(#g)" />
  <rect x="64" y="49.5" width="16" height="10.5" fill="url(#g)" opacity="0.25" />
  <rect x="80" y="49.5" width="24" height="10.5" fill="url(#g)" />
  <rect x="112" y="49.5" width="24" height="10.5" fill="url(#g)" />
  <rect x="136" y="49.5" width="16" height="10.5" fill="url(#g)" opacity="0.25" />
  <rect x="152" y="49.5" width="24" height="10.5" fill="url(#g)" />
  <rect x="184" y="49.5" width="24" height="10.5" fill="url(#g)" />
  <rect x="208" y="49.5" width="16" height="10.5" fill="url(#g)" opacity="0.25" />
  <rect x="224" y="49.5" width="24" height="10.5" fill="url(#g)" />
  <rect x="264" y="49.5" width="8" height="10.5" fill="url(#g)" opacity="0.25" />
  <rect x="272" y="49.5" width="24" height="10.5" fill="url(#g)" />
  <rect x="296" y="49.5" width="16" height="10.5" fill="url(#g)" opacity="0.25" />
  <rect x="312" y="49.5" width="24" height="10.5" fill="url(#g)" />
  <rect x="344" y="49.5" width="24" height="10.5" fill="url(#g)" />
  <rect x="368" y="49.5" width="16" height="10.5" fill="url(#g)" opacity="0.25" />
  <rect x="384" y="49.5" width="24" height="10.5" fill="url(#g)" />
  <rect x="408" y="49.5" width="16" height="10.5" fill="url(#g)" opacity="0.25" />
  <rect x="424" y="49.5" width="24" height="10.5" fill="url(#g)" />
  <rect x="456" y="49.5" width="16" height="10.5" fill="url(#g)" opacity="0.25" />
  <rect x="472" y="49.5" width="24" height="10.5" fill="url(#g)" />
  <rect x="32" y="60.0" width="8" height="10.5" fill="url(#g)" opacity="0.25" />
  <rect x="40" y="60.0" width="24" height="10.5" fill="url(#g)" />
  <rect x="72" y="60.0" width="8" height="10.5" fill="url(#g)" opacity="0.25" />
  <rect x="80" y="60.0" width="24" height="10.5" fill="url(#g)" />
  <rect x="104" y="60.0" width="8" height="10.5" fill="url(#g)" opacity="0.25" />
  <rect x="112" y="60.0" width="24" height="10.5" fill="url(#g)" />
  <rect x="144" y="60.0" width="8" height="10.5" fill="url(#g)" opacity="0.25" />
  <rect x="152" y="60.0" width="24" height="10.5" fill="url(#g)" />
  <rect x="176" y="60.0" width="8" height="10.5" fill="url(#g)" opacity="0.25" />
  <rect x="184" y="60.0" width="24" height="10.5" fill="url(#g)" />
  <rect x="216" y="60.0" width="8" height="10.5" fill="url(#g)" opacity="0.25" />
  <rect x="224" y="60.0" width="24" height="10.5" fill="url(#g)" />
  <rect x="264" y="60.0" width="8" height="10.5" fill="url(#g)" opacity="0.25" />
  <rect x="272" y="60.0" width="24" height="10.5" fill="url(#g)" />
  <rect x="304" y="60.0" width="8" height="10.5" fill="url(#g)" opacity="0.25" />
  <rect x="312" y="60.0" width="24" height="10.5" fill="url(#g)" />
  <rect x="336" y="60.0" width="8" height="10.5" fill="url(#g)" opacity="0.25" />
  <rect x="344" y="60.0" width="24" height="10.5" fill="url(#g)" />
  <rect x="376" y="60.0" width="8" height="10.5" fill="url(#g)" opacity="0.25" />
  <rect x="384" y="60.0" width="24" height="10.5" fill="url(#g)" />
  <rect x="416" y="60.0" width="24" height="10.5" fill="url(#g)" opacity="0.25" />
  <rect x="440" y="60.0" width="40" height="10.5" fill="url(#g)" />
  <rect x="480" y="60.0" width="8" height="10.5" fill="url(#g)" opacity="0.25" />
  <rect x="32" y="70.5" width="8" height="10.5" fill="url(#g)" opacity="0.25" />
  <rect x="40" y="70.5" width="24" height="10.5" fill="url(#g)" />
  <rect x="72" y="70.5" width="8" height="10.5" fill="url(#g)" opacity="0.25" />
  <rect x="80" y="70.5" width="24" height="10.5" fill="url(#g)" />
  <rect x="104" y="70.5" width="8" height="10.5" fill="url(#g)" opacity="0.25" />
  <rect x="112" y="70.5" width="24" height="10.5" fill="url(#g)" />
  <rect x="144" y="70.5" width="8" height="10.5" fill="url(#g)" opacity="0.25" />
  <rect x="152" y="70.5" width="24" height="10.5" fill="url(#g)" />
  <rect x="176" y="70.5" width="8" height="10.5" fill="url(#g)" opacity="0.25" />
  <rect x="184" y="70.5" width="24" height="10.5" fill="url(#g)" />
  <rect x="216" y="70.5" width="8" height="10.5" fill="url(#g)" opacity="0.25" />
  <rect x="224" y="70.5" width="24" height="10.5" fill="url(#g)" />
  <rect x="264" y="70.5" width="8" height="10.5" fill="url(#g)" opacity="0.25" />
  <rect x="272" y="70.5" width="24" height="10.5" fill="url(#g)" />
  <rect x="304" y="70.5" width="8" height="10.5" fill="url(#g)" opacity="0.25" />
  <rect x="312" y="70.5" width="24" height="10.5" fill="url(#g)" />
  <rect x="336" y="70.5" width="8" height="10.5" fill="url(#g)" opacity="0.25" />
  <rect x="344" y="70.5" width="24" height="10.5" fill="url(#g)" />
  <rect x="376" y="70.5" width="8" height="10.5" fill="url(#g)" opacity="0.25" />
  <rect x="384" y="70.5" width="24" height="10.5" fill="url(#g)" />
  <rect x="424" y="70.5" width="24" height="10.5" fill="url(#g)" />
  <rect x="448" y="70.5" width="24" height="10.5" fill="url(#g)" opacity="0.25" />
  <rect x="472" y="70.5" width="24" height="10.5" fill="url(#g)" />
  <rect x="32" y="81.0" width="8" height="10.5" fill="url(#g)" opacity="0.25" />
  <rect x="40" y="81.0" width="56" height="10.5" fill="url(#g)" />
  <rect x="104" y="81.0" width="16" height="10.5" fill="url(#g)" opacity="0.25" />
  <rect x="120" y="81.0" width="48" height="10.5" fill="url(#g)" />
  <rect x="176" y="81.0" width="16" height="10.5" fill="url(#g)" opacity="0.25" />
  <rect x="192" y="81.0" width="64" height="10.5" fill="url(#g)" />
  <rect x="264" y="81.0" width="64" height="10.5" fill="url(#g)" />
  <rect x="336" y="81.0" width="16" height="10.5" fill="url(#g)" opacity="0.25" />
  <rect x="352" y="81.0" width="48" height="10.5" fill="url(#g)" />
  <rect x="416" y="81.0" width="40" height="10.5" fill="url(#g)" />
  <rect x="464" y="81.0" width="40" height="10.5" fill="url(#g)" />
  <rect x="32" y="91.5" width="8" height="10.5" fill="url(#g)" opacity="0.25" />
  <rect x="40" y="91.5" width="24" height="10.5" fill="url(#g)" />
  <rect x="64" y="91.5" width="24" height="10.5" fill="url(#g)" opacity="0.25" />
  <rect x="112" y="91.5" width="48" height="10.5" fill="url(#g)" opacity="0.25" />
  <rect x="184" y="91.5" width="64" height="10.5" fill="url(#g)" opacity="0.25" />
  <rect x="256" y="91.5" width="64" height="10.5" fill="url(#g)" opacity="0.25" />
  <rect x="344" y="91.5" width="48" height="10.5" fill="url(#g)" opacity="0.25" />
  <rect x="408" y="91.5" width="40" height="10.5" fill="url(#g)" opacity="0.25" />
  <rect x="456" y="91.5" width="40" height="10.5" fill="url(#g)" opacity="0.25" />
  <rect x="32" y="102.0" width="8" height="10.5" fill="url(#g)" opacity="0.25" />
  <rect x="40" y="102.0" width="24" height="10.5" fill="url(#g)" />
  <rect x="32" y="112.5" width="40" height="10.5" fill="url(#g)" />
  <rect x="24" y="123.0" width="40" height="10.5" fill="url(#g)" opacity="0.25" />
</svg>
